<svg xmlns="http://www.w3.org/2000/svg" viewBox="0 0 340 340" width="340" height="340"><defs><linearGradient id="shine" x1="0" y1="0" x2="1" y2="1"><stop offset="0" stop-color="#fff" stop-opacity="0.45"/><stop offset="0.5" stop-color="#fff" stop-opacity="0"/></linearGradient></defs><rect width="340" height="340" fill="#E4F4FF"/><circle cx="10" cy="10" r="2.2" fill="#17142E" opacity="0.10"/><circle cx="30" cy="10" r="2.2" fill="#17142E" opacity="0.10"/><circle cx="50" cy="10" r="2.2" fill="#17142E" opacity="0.10"/><circle cx="70" cy="10" r="2.2" fill="#17142E" opacity="0.10"/><circle cx="90" cy="10" r="2.2" fill="#17142E" opacity="0.10"/><circle cx="110" cy="10" r="2.2" fill="#17142E" opacity="0.10"/><circle cx="130" cy="10" r="2.2" fill="#17142E" opacity="0.10"/><circle cx="150" cy="10" r="2.2" fill="#17142E" opacity="0.10"/><circle cx="170" cy="10" r="2.2" fill="#17142E" opacity="0.10"/><circle cx="190" cy="10" r="2.2" fill="#17142E" opacity="0.10"/><circle cx="210" cy="10" r="2.2" fill="#17142E" opacity="0.10"/><circle cx="230" cy="10" r="2.2" fill="#17142E" opacity="0.10"/><circle cx="250" cy="10" r="2.2" fill="#17142E" opacity="0.10"/><circle cx="270" cy="10" r="2.2" fill="#17142E" opacity="0.10"/><circle cx="290" cy="10" r="2.2" fill="#17142E" opacity="0.10"/><circle cx="310" cy="10" r="2.2" fill="#17142E" opacity="0.10"/><circle cx="330" cy="10" r="2.2" fill="#17142E" opacity="0.10"/><circle cx="10" cy="30" r="2.2" fill="#17142E" opacity="0.10"/><circle cx="30" cy="30" r="2.2" fill="#17142E" opacity="0.10"/><circle cx="50" cy="30" r="2.2" fill="#17142E" opacity="0.10"/><circle cx="70" cy="30" r="2.2" fill="#17142E" opacity="0.10"/><circle cx="90" cy="30" r="2.2" fill="#17142E" opacity="0.10"/><circle cx="110" cy="30" r="2.2" fill="#17142E" opacity="0.10"/><circle cx="130" cy="30" r="2.2" fill="#17142E" opacity="0.10"/><circle cx="150" cy="30" r="2.2" fill="#17142E" opacity="0.10"/><circle cx="170" cy="30" r="2.2" fill="#17142E" opacity="0.10"/><circle cx="190" cy="30" r="2.2" fill="#17142E" opacity="0.10"/><circle cx="210" cy="30" r="2.2" fill="#17142E" opacity="0.10"/><circle cx="230" cy="30" r="2.2" fill="#17142E" opacity="0.10"/><circle cx="250" cy="30" r="2.2" fill="#17142E" opacity="0.10"/><circle cx="270" cy="30" r="2.2" fill="#17142E" opacity="0.10"/><circle cx="290" cy="30" r="2.2" fill="#17142E" opacity="0.10"/><circle cx="310" cy="30" r="2.2" fill="#17142E" opacity="0.10"/><circle cx="330" cy="30" r="2.2" fill="#17142E" opacity="0.10"/><circle cx="10" cy="50" r="2.2" fill="#17142E" opacity="0.10"/><circle cx="30" cy="50" r="2.2" fill="#17142E" opacity="0.10"/><circle cx="50" cy="50" r="2.2" fill="#17142E" opacity="0.10"/><circle cx="70" cy="50" r="2.2" fill="#17142E" opacity="0.10"/><circle cx="90" cy="50" r="2.2" fill="#17142E" opacity="0.10"/><circle cx="110" cy="50" r="2.2" fill="#17142E" opacity="0.10"/><circle cx="130" cy="50" r="2.2" fill="#17142E" opacity="0.10"/><circle cx="150" cy="50" r="2.2" fill="#17142E" opacity="0.10"/><circle cx="170" cy="50" r="2.2" fill="#17142E" opacity="0.10"/><circle cx="190" cy="50" r="2.2" fill="#17142E" opacity="0.10"/><circle cx="210" cy="50" r="2.2" fill="#17142E" opacity="0.10"/><circle cx="230" cy="50" r="2.2" fill="#17142E" opacity="0.10"/><circle cx="250" cy="50" r="2.2" fill="#17142E" opacity="0.10"/><circle cx="270" cy="50" r="2.2" fill="#17142E" opacity="0.10"/><circle cx="290" cy="50" r="2.2" fill="#17142E" opacity="0.10"/><circle cx="310" cy="50" r="2.2" fill="#17142E" opacity="0.10"/><circle cx="330" cy="50" r="2.2" fill="#17142E" opacity="0.10"/><circle cx="10" cy="70" r="2.2" fill="#17142E" opacity="0.10"/><circle cx="30" cy="70" r="2.2" fill="#17142E" opacity="0.10"/><circle cx="50" cy="70" r="2.2" fill="#17142E" opacity="0.10"/><circle cx="70" cy="70" r="2.2" fill="#17142E" opacity="0.10"/><circle cx="90" cy="70" r="2.2" fill="#17142E" opacity="0.10"/><circle cx="110" cy="70" r="2.2" fill="#17142E" opacity="0.10"/><circle cx="130" cy="70" r="2.2" fill="#17142E" opacity="0.10"/><circle cx="150" cy="70" r="2.2" fill="#17142E" opacity="0.10"/><circle cx="170" cy="70" r="2.2" fill="#17142E" opacity="0.10"/><circle cx="190" cy="70" r="2.2" fill="#17142E" opacity="0.10"/><circle cx="210" cy="70" r="2.2" fill="#17142E" opacity="0.10"/><circle cx="230" cy="70" r="2.2" fill="#17142E" opacity="0.10"/><circle cx="250" cy="70" r="2.2" fill="#17142E" opacity="0.10"/><circle cx="270" cy="70" r="2.2" fill="#17142E" opacity="0.10"/><circle cx="290" cy="70" r="2.2" fill="#17142E" opacity="0.10"/><circle cx="310" cy="70" r="2.2" fill="#17142E" opacity="0.10"/><circle cx="330" cy="70" r="2.2" fill="#17142E" opacity="0.10"/><circle cx="10" cy="90" r="2.2" fill="#17142E" opacity="0.10"/><circle cx="30" cy="90" r="2.2" fill="#17142E" opacity="0.10"/><circle cx="50" cy="90" r="2.2" fill="#17142E" opacity="0.10"/><circle cx="70" cy="90" r="2.2" fill="#17142E" opacity="0.10"/><circle cx="90" cy="90" r="2.2" fill="#17142E" opacity="0.10"/><circle cx="110" cy="90" r="2.2" fill="#17142E" opacity="0.10"/><circle cx="130" cy="90" r="2.2" fill="#17142E" opacity="0.10"/><circle cx="150" cy="90" r="2.2" fill="#17142E" opacity="0.10"/><circle cx="170" cy="90" r="2.2" fill="#17142E" opacity="0.10"/><circle cx="190" cy="90" r="2.2" fill="#17142E" opacity="0.10"/><circle cx="210" cy="90" r="2.2" fill="#17142E" opacity="0.10"/><circle cx="230" cy="90" r="2.2" fill="#17142E" opacity="0.10"/><circle cx="250" cy="90" r="2.2" fill="#17142E" opacity="0.10"/><circle cx="270" cy="90" r="2.2" fill="#17142E" opacity="0.10"/><circle cx="290" cy="90" r="2.2" fill="#17142E" opacity="0.10"/><circle cx="310" cy="90" r="2.2" fill="#17142E" opacity="0.10"/><circle cx="330" cy="90" r="2.2" fill="#17142E" opacity="0.10"/><circle cx="10" cy="110" r="2.2" fill="#17142E" opacity="0.10"/><circle cx="30" cy="110" r="2.2" fill="#17142E" opacity="0.10"/><circle cx="50" cy="110" r="2.2" fill="#17142E" opacity="0.10"/><circle cx="70" cy="110" r="2.2" fill="#17142E" opacity="0.10"/><circle cx="90" cy="110" r="2.2" fill="#17142E" opacity="0.10"/><circle cx="110" cy="110" r="2.2" fill="#17142E" opacity="0.10"/><circle cx="130" cy="110" r="2.2" fill="#17142E" opacity="0.10"/><circle cx="150" cy="110" r="2.2" fill="#17142E" opacity="0.10"/><circle cx="170" cy="110" r="2.2" fill="#17142E" opacity="0.10"/><circle cx="190" cy="110" r="2.2" fill="#17142E" opacity="0.10"/><circle cx="210" cy="110" r="2.2" fill="#17142E" opacity="0.10"/><circle cx="230" cy="110" r="2.2" fill="#17142E" opacity="0.10"/><circle cx="250" cy="110" r="2.2" fill="#17142E" opacity="0.10"/><circle cx="270" cy="110" r="2.2" fill="#17142E" opacity="0.10"/><circle cx="290" cy="110" r="2.2" fill="#17142E" opacity="0.10"/><circle cx="310" cy="110" r="2.2" fill="#17142E" opacity="0.10"/><circle cx="330" cy="110" r="2.2" fill="#17142E" opacity="0.10"/><circle cx="10" cy="130" r="2.2" fill="#17142E" opacity="0.10"/><circle cx="30" cy="130" r="2.2" fill="#17142E" opacity="0.10"/><circle cx="50" cy="130" r="2.2" fill="#17142E" opacity="0.10"/><circle cx="70" cy="130" r="2.2" fill="#17142E" opacity="0.10"/><circle cx="90" cy="130" r="2.2" fill="#17142E" opacity="0.10"/><circle cx="110" cy="130" r="2.2" fill="#17142E" opacity="0.10"/><circle cx="130" cy="130" r="2.2" fill="#17142E" opacity="0.10"/><circle cx="150" cy="130" r="2.2" fill="#17142E" opacity="0.10"/><circle cx="170" cy="130" r="2.2" fill="#17142E" opacity="0.10"/><circle cx="190" cy="130" r="2.2" fill="#17142E" opacity="0.10"/><circle cx="210" cy="130" r="2.2" fill="#17142E" opacity="0.10"/><circle cx="230" cy="130" r="2.2" fill="#17142E" opacity="0.10"/><circle cx="250" cy="130" r="2.2" fill="#17142E" opacity="0.10"/><circle cx="270" cy="130" r="2.2" fill="#17142E" opacity="0.10"/><circle cx="290" cy="130" r="2.2" fill="#17142E" opacity="0.10"/><circle cx="310" cy="130" r="2.2" fill="#17142E" opacity="0.10"/><circle cx="330" cy="130" r="2.2" fill="#17142E" opacity="0.10"/><circle cx="10" cy="150" r="2.2" fill="#17142E" opacity="0.10"/><circle cx="30" cy="150" r="2.2" fill="#17142E" opacity="0.10"/><circle cx="50" cy="150" r="2.2" fill="#17142E" opacity="0.10"/><circle cx="70" cy="150" r="2.2" fill="#17142E" opacity="0.10"/><circle cx="90" cy="150" r="2.2" fill="#17142E" opacity="0.10"/><circle cx="110" cy="150" r="2.2" fill="#17142E" opacity="0.10"/><circle cx="130" cy="150" r="2.2" fill="#17142E" opacity="0.10"/><circle cx="150" cy="150" r="2.2" fill="#17142E" opacity="0.10"/><circle cx="170" cy="150" r="2.2" fill="#17142E" opacity="0.10"/><circle cx="190" cy="150" r="2.2" fill="#17142E" opacity="0.10"/><circle cx="210" cy="150" r="2.2" fill="#17142E" opacity="0.10"/><circle cx="230" cy="150" r="2.2" fill="#17142E" opacity="0.10"/><circle cx="250" cy="150" r="2.2" fill="#17142E" opacity="0.10"/><circle cx="270" cy="150" r="2.2" fill="#17142E" opacity="0.10"/><circle cx="290" cy="150" r="2.2" fill="#17142E" opacity="0.10"/><circle cx="310" cy="150" r="2.2" fill="#17142E" opacity="0.10"/><circle cx="330" cy="150" r="2.2" fill="#17142E" opacity="0.10"/><circle cx="10" cy="170" r="2.2" fill="#17142E" opacity="0.10"/><circle cx="30" cy="170" r="2.2" fill="#17142E" opacity="0.10"/><circle cx="50" cy="170" r="2.2" fill="#17142E" opacity="0.10"/><circle cx="70" cy="170" r="2.2" fill="#17142E" opacity="0.10"/><circle cx="90" cy="170" r="2.2" fill="#17142E" opacity="0.10"/><circle cx="110" cy="170" r="2.2" fill="#17142E" opacity="0.10"/><circle cx="130" cy="170" r="2.2" fill="#17142E" opacity="0.10"/><circle cx="150" cy="170" r="2.2" fill="#17142E" opacity="0.10"/><circle cx="170" cy="170" r="2.2" fill="#17142E" opacity="0.10"/><circle cx="190" cy="170" r="2.2" fill="#17142E" opacity="0.10"/><circle cx="210" cy="170" r="2.2" fill="#17142E" opacity="0.10"/><circle cx="230" cy="170" r="2.2" fill="#17142E" opacity="0.10"/><circle cx="250" cy="170" r="2.2" fill="#17142E" opacity="0.10"/><circle cx="270" cy="170" r="2.2" fill="#17142E" opacity="0.10"/><circle cx="290" cy="170" r="2.2" fill="#17142E" opacity="0.10"/><circle cx="310" cy="170" r="2.2" fill="#17142E" opacity="0.10"/><circle cx="330" cy="170" r="2.2" fill="#17142E" opacity="0.10"/><circle cx="10" cy="190" r="2.2" fill="#17142E" opacity="0.10"/><circle cx="30" cy="190" r="2.2" fill="#17142E" opacity="0.10"/><circle cx="50" cy="190" r="2.2" fill="#17142E" opacity="0.10"/><circle cx="70" cy="190" r="2.2" fill="#17142E" opacity="0.10"/><circle cx="90" cy="190" r="2.2" fill="#17142E" opacity="0.10"/><circle cx="110" cy="190" r="2.2" fill="#17142E" opacity="0.10"/><circle cx="130" cy="190" r="2.2" fill="#17142E" opacity="0.10"/><circle cx="150" cy="190" r="2.2" fill="#17142E" opacity="0.10"/><circle cx="170" cy="190" r="2.2" fill="#17142E" opacity="0.10"/><circle cx="190" cy="190" r="2.2" fill="#17142E" opacity="0.10"/><circle cx="210" cy="190" r="2.2" fill="#17142E" opacity="0.10"/><circle cx="230" cy="190" r="2.2" fill="#17142E" opacity="0.10"/><circle cx="250" cy="190" r="2.2" fill="#17142E" opacity="0.10"/><circle cx="270" cy="190" r="2.2" fill="#17142E" opacity="0.10"/><circle cx="290" cy="190" r="2.2" fill="#17142E" opacity="0.10"/><circle cx="310" cy="190" r="2.2" fill="#17142E" opacity="0.10"/><circle cx="330" cy="190" r="2.2" fill="#17142E" opacity="0.10"/><circle cx="10" cy="210" r="2.2" fill="#17142E" opacity="0.10"/><circle cx="30" cy="210" r="2.2" fill="#17142E" opacity="0.10"/><circle cx="50" cy="210" r="2.2" fill="#17142E" opacity="0.10"/><circle cx="70" cy="210" r="2.2" fill="#17142E" opacity="0.10"/><circle cx="90" cy="210" r="2.2" fill="#17142E" opacity="0.10"/><circle cx="110" cy="210" r="2.2" fill="#17142E" opacity="0.10"/><circle cx="130" cy="210" r="2.2" fill="#17142E" opacity="0.10"/><circle cx="150" cy="210" r="2.2" fill="#17142E" opacity="0.10"/><circle cx="170" cy="210" r="2.2" fill="#17142E" opacity="0.10"/><circle cx="190" cy="210" r="2.2" fill="#17142E" opacity="0.10"/><circle cx="210" cy="210" r="2.2" fill="#17142E" opacity="0.10"/><circle cx="230" cy="210" r="2.2" fill="#17142E" opacity="0.10"/><circle cx="250" cy="210" r="2.2" fill="#17142E" opacity="0.10"/><circle cx="270" cy="210" r="2.2" fill="#17142E" opacity="0.10"/><circle cx="290" cy="210" r="2.2" fill="#17142E" opacity="0.10"/><circle cx="310" cy="210" r="2.2" fill="#17142E" opacity="0.10"/><circle cx="330" cy="210" r="2.2" fill="#17142E" opacity="0.10"/><circle cx="10" cy="230" r="2.2" fill="#17142E" opacity="0.10"/><circle cx="30" cy="230" r="2.2" fill="#17142E" opacity="0.10"/><circle cx="50" cy="230" r="2.2" fill="#17142E" opacity="0.10"/><circle cx="70" cy="230" r="2.2" fill="#17142E" opacity="0.10"/><circle cx="90" cy="230" r="2.2" fill="#17142E" opacity="0.10"/><circle cx="110" cy="230" r="2.2" fill="#17142E" opacity="0.10"/><circle cx="130" cy="230" r="2.2" fill="#17142E" opacity="0.10"/><circle cx="150" cy="230" r="2.2" fill="#17142E" opacity="0.10"/><circle cx="170" cy="230" r="2.2" fill="#17142E" opacity="0.10"/><circle cx="190" cy="230" r="2.2" fill="#17142E" opacity="0.10"/><circle cx="210" cy="230" r="2.2" fill="#17142E" opacity="0.10"/><circle cx="230" cy="230" r="2.2" fill="#17142E" opacity="0.10"/><circle cx="250" cy="230" r="2.2" fill="#17142E" opacity="0.10"/><circle cx="270" cy="230" r="2.2" fill="#17142E" opacity="0.10"/><circle cx="290" cy="230" r="2.2" fill="#17142E" opacity="0.10"/><circle cx="310" cy="230" r="2.2" fill="#17142E" opacity="0.10"/><circle cx="330" cy="230" r="2.2" fill="#17142E" opacity="0.10"/><circle cx="10" cy="250" r="2.2" fill="#17142E" opacity="0.10"/><circle cx="30" cy="250" r="2.2" fill="#17142E" opacity="0.10"/><circle cx="50" cy="250" r="2.2" fill="#17142E" opacity="0.10"/><circle cx="70" cy="250" r="2.2" fill="#17142E" opacity="0.10"/><circle cx="90" cy="250" r="2.2" fill="#17142E" opacity="0.10"/><circle cx="110" cy="250" r="2.2" fill="#17142E" opacity="0.10"/><circle cx="130" cy="250" r="2.2" fill="#17142E" opacity="0.10"/><circle cx="150" cy="250" r="2.2" fill="#17142E" opacity="0.10"/><circle cx="170" cy="250" r="2.2" fill="#17142E" opacity="0.10"/><circle cx="190" cy="250" r="2.2" fill="#17142E" opacity="0.10"/><circle cx="210" cy="250" r="2.2" fill="#17142E" opacity="0.10"/><circle cx="230" cy="250" r="2.2" fill="#17142E" opacity="0.10"/><circle cx="250" cy="250" r="2.2" fill="#17142E" opacity="0.10"/><circle cx="270" cy="250" r="2.2" fill="#17142E" opacity="0.10"/><circle cx="290" cy="250" r="2.2" fill="#17142E" opacity="0.10"/><circle cx="310" cy="250" r="2.2" fill="#17142E" opacity="0.10"/><circle cx="330" cy="250" r="2.2" fill="#17142E" opacity="0.10"/><circle cx="10" cy="270" r="2.2" fill="#17142E" opacity="0.10"/><circle cx="30" cy="270" r="2.2" fill="#17142E" opacity="0.10"/><circle cx="50" cy="270" r="2.2" fill="#17142E" opacity="0.10"/><circle cx="70" cy="270" r="2.2" fill="#17142E" opacity="0.10"/><circle cx="90" cy="270" r="2.2" fill="#17142E" opacity="0.10"/><circle cx="110" cy="270" r="2.2" fill="#17142E" opacity="0.10"/><circle cx="130" cy="270" r="2.2" fill="#17142E" opacity="0.10"/><circle cx="150" cy="270" r="2.2" fill="#17142E" opacity="0.10"/><circle cx="170" cy="270" r="2.2" fill="#17142E" opacity="0.10"/><circle cx="190" cy="270" r="2.2" fill="#17142E" opacity="0.10"/><circle cx="210" cy="270" r="2.2" fill="#17142E" opacity="0.10"/><circle cx="230" cy="270" r="2.2" fill="#17142E" opacity="0.10"/><circle cx="250" cy="270" r="2.2" fill="#17142E" opacity="0.10"/><circle cx="270" cy="270" r="2.2" fill="#17142E" opacity="0.10"/><circle cx="290" cy="270" r="2.2" fill="#17142E" opacity="0.10"/><circle cx="310" cy="270" r="2.2" fill="#17142E" opacity="0.10"/><circle cx="330" cy="270" r="2.2" fill="#17142E" opacity="0.10"/><circle cx="10" cy="290" r="2.2" fill="#17142E" opacity="0.10"/><circle cx="30" cy="290" r="2.2" fill="#17142E" opacity="0.10"/><circle cx="50" cy="290" r="2.2" fill="#17142E" opacity="0.10"/><circle cx="70" cy="290" r="2.2" fill="#17142E" opacity="0.10"/><circle cx="90" cy="290" r="2.2" fill="#17142E" opacity="0.10"/><circle cx="110" cy="290" r="2.2" fill="#17142E" opacity="0.10"/><circle cx="130" cy="290" r="2.2" fill="#17142E" opacity="0.10"/><circle cx="150" cy="290" r="2.2" fill="#17142E" opacity="0.10"/><circle cx="170" cy="290" r="2.2" fill="#17142E" opacity="0.10"/><circle cx="190" cy="290" r="2.2" fill="#17142E" opacity="0.10"/><circle cx="210" cy="290" r="2.2" fill="#17142E" opacity="0.10"/><circle cx="230" cy="290" r="2.2" fill="#17142E" opacity="0.10"/><circle cx="250" cy="290" r="2.2" fill="#17142E" opacity="0.10"/><circle cx="270" cy="290" r="2.2" fill="#17142E" opacity="0.10"/><circle cx="290" cy="290" r="2.2" fill="#17142E" opacity="0.10"/><circle cx="310" cy="290" r="2.2" fill="#17142E" opacity="0.10"/><circle cx="330" cy="290" r="2.2" fill="#17142E" opacity="0.10"/><circle cx="10" cy="310" r="2.2" fill="#17142E" opacity="0.10"/><circle cx="30" cy="310" r="2.2" fill="#17142E" opacity="0.10"/><circle cx="50" cy="310" r="2.2" fill="#17142E" opacity="0.10"/><circle cx="70" cy="310" r="2.2" fill="#17142E" opacity="0.10"/><circle cx="90" cy="310" r="2.2" fill="#17142E" opacity="0.10"/><circle cx="110" cy="310" r="2.2" fill="#17142E" opacity="0.10"/><circle cx="130" cy="310" r="2.2" fill="#17142E" opacity="0.10"/><circle cx="150" cy="310" r="2.2" fill="#17142E" opacity="0.10"/><circle cx="170" cy="310" r="2.2" fill="#17142E" opacity="0.10"/><circle cx="190" cy="310" r="2.2" fill="#17142E" opacity="0.10"/><circle cx="210" cy="310" r="2.2" fill="#17142E" opacity="0.10"/><circle cx="230" cy="310" r="2.2" fill="#17142E" opacity="0.10"/><circle cx="250" cy="310" r="2.2" fill="#17142E" opacity="0.10"/><circle cx="270" cy="310" r="2.2" fill="#17142E" opacity="0.10"/><circle cx="290" cy="310" r="2.2" fill="#17142E" opacity="0.10"/><circle cx="310" cy="310" r="2.2" fill="#17142E" opacity="0.10"/><circle cx="330" cy="310" r="2.2" fill="#17142E" opacity="0.10"/><circle cx="10" cy="330" r="2.2" fill="#17142E" opacity="0.10"/><circle cx="30" cy="330" r="2.2" fill="#17142E" opacity="0.10"/><circle cx="50" cy="330" r="2.2" fill="#17142E" opacity="0.10"/><circle cx="70" cy="330" r="2.2" fill="#17142E" opacity="0.10"/><circle cx="90" cy="330" r="2.2" fill="#17142E" opacity="0.10"/><circle cx="110" cy="330" r="2.2" fill="#17142E" opacity="0.10"/><circle cx="130" cy="330" r="2.2" fill="#17142E" opacity="0.10"/><circle cx="150" cy="330" r="2.2" fill="#17142E" opacity="0.10"/><circle cx="170" cy="330" r="2.2" fill="#17142E" opacity="0.10"/><circle cx="190" cy="330" r="2.2" fill="#17142E" opacity="0.10"/><circle cx="210" cy="330" r="2.2" fill="#17142E" opacity="0.10"/><circle cx="230" cy="330" r="2.2" fill="#17142E" opacity="0.10"/><circle cx="250" cy="330" r="2.2" fill="#17142E" opacity="0.10"/><circle cx="270" cy="330" r="2.2" fill="#17142E" opacity="0.10"/><circle cx="290" cy="330" r="2.2" fill="#17142E" opacity="0.10"/><circle cx="310" cy="330" r="2.2" fill="#17142E" opacity="0.10"/><circle cx="330" cy="330" r="2.2" fill="#17142E" opacity="0.10"/><g transform="translate(160 40)"><rect x="1" y="1" width="18" height="18" rx="7" fill="#E8364F"/><rect x="1" y="1" width="18" height="18" rx="7" fill="url(#shine)"/><circle cx="10" cy="10" r="3.4" fill="#000" opacity="0.18"/></g><g transform="translate(140 60)"><rect x="1" y="1" width="18" height="18" rx="7" fill="#E8364F"/><rect x="1" y="1" width="18" height="18" rx="7" fill="url(#shine)"/><circle cx="10" cy="10" r="3.4" fill="#000" opacity="0.18"/></g><g transform="translate(160 60)"><rect x="1" y="1" width="18" height="18" rx="7" fill="#E8364F"/><rect x="1" y="1" width="18" height="18" rx="7" fill="url(#shine)"/><circle cx="10" cy="10" r="3.4" fill="#000" opacity="0.18"/></g><g transform="translate(180 60)"><rect x="1" y="1" width="18" height="18" rx="7" fill="#E8364F"/><rect x="1" y="1" width="18" height="18" rx="7" fill="url(#shine)"/><circle cx="10" cy="10" r="3.4" fill="#000" opacity="0.18"/></g><g transform="translate(140 80)"><rect x="1" y="1" width="18" height="18" rx="7" fill="#FFFFFF"/><rect x="1" y="1" width="18" height="18" rx="7" fill="url(#shine)"/><circle cx="10" cy="10" r="3.4" fill="#000" opacity="0.18"/></g><g transform="translate(160 80)"><rect x="1" y="1" width="18" height="18" rx="7" fill="#FFFFFF"/><rect x="1" y="1" width="18" height="18" rx="7" fill="url(#shine)"/><circle cx="10" cy="10" r="3.4" fill="#000" opacity="0.18"/></g><g transform="translate(180 80)"><rect x="1" y="1" width="18" height="18" rx="7" fill="#FFFFFF"/><rect x="1" y="1" width="18" height="18" rx="7" fill="url(#shine)"/><circle cx="10" cy="10" r="3.4" fill="#000" opacity="0.18"/></g><g transform="translate(120 100)"><rect x="1" y="1" width="18" height="18" rx="7" fill="#FFFFFF"/><rect x="1" y="1" width="18" height="18" rx="7" fill="url(#shine)"/><circle cx="10" cy="10" r="3.4" fill="#000" opacity="0.18"/></g><g transform="translate(140 100)"><rect x="1" y="1" width="18" height="18" rx="7" fill="#FFFFFF"/><rect x="1" y="1" width="18" height="18" rx="7" fill="url(#shine)"/><circle cx="10" cy="10" r="3.4" fill="#000" opacity="0.18"/></g><g transform="translate(160 100)"><rect x="1" y="1" width="18" height="18" rx="7" fill="#54D2F0"/><rect x="1" y="1" width="18" height="18" rx="7" fill="url(#shine)"/><circle cx="10" cy="10" r="3.4" fill="#000" opacity="0.18"/></g><g transform="translate(180 100)"><rect x="1" y="1" width="18" height="18" rx="7" fill="#FFFFFF"/><rect x="1" y="1" width="18" height="18" rx="7" fill="url(#shine)"/><circle cx="10" cy="10" r="3.4" fill="#000" opacity="0.18"/></g><g transform="translate(200 100)"><rect x="1" y="1" width="18" height="18" rx="7" fill="#FFFFFF"/><rect x="1" y="1" width="18" height="18" rx="7" fill="url(#shine)"/><circle cx="10" cy="10" r="3.4" fill="#000" opacity="0.18"/></g><g transform="translate(120 120)"><rect x="1" y="1" width="18" height="18" rx="7" fill="#FFFFFF"/><rect x="1" y="1" width="18" height="18" rx="7" fill="url(#shine)"/><circle cx="10" cy="10" r="3.4" fill="#000" opacity="0.18"/></g><g transform="translate(140 120)"><rect x="1" y="1" width="18" height="18" rx="7" fill="#54D2F0"/><rect x="1" y="1" width="18" height="18" rx="7" fill="url(#shine)"/><circle cx="10" cy="10" r="3.4" fill="#000" opacity="0.18"/></g><g transform="translate(160 120)"><rect x="1" y="1" width="18" height="18" rx="7" fill="#54D2F0"/><rect x="1" y="1" width="18" height="18" rx="7" fill="url(#shine)"/><circle cx="10" cy="10" r="3.4" fill="#000" opacity="0.18"/></g><g transform="translate(180 120)"><rect x="1" y="1" width="18" height="18" rx="7" fill="#54D2F0"/><rect x="1" y="1" width="18" height="18" rx="7" fill="url(#shine)"/><circle cx="10" cy="10" r="3.4" fill="#000" opacity="0.18"/></g><g transform="translate(200 120)"><rect x="1" y="1" width="18" height="18" rx="7" fill="#FFFFFF"/><rect x="1" y="1" width="18" height="18" rx="7" fill="url(#shine)"/><circle cx="10" cy="10" r="3.4" fill="#000" opacity="0.18"/></g><g transform="translate(120 140)"><rect x="1" y="1" width="18" height="18" rx="7" fill="#FFFFFF"/><rect x="1" y="1" width="18" height="18" rx="7" fill="url(#shine)"/><circle cx="10" cy="10" r="3.4" fill="#000" opacity="0.18"/></g><g transform="translate(140 140)"><rect x="1" y="1" width="18" height="18" rx="7" fill="#FFFFFF"/><rect x="1" y="1" width="18" height="18" rx="7" fill="url(#shine)"/><circle cx="10" cy="10" r="3.4" fill="#000" opacity="0.18"/></g><g transform="translate(160 140)"><rect x="1" y="1" width="18" height="18" rx="7" fill="#54D2F0"/><rect x="1" y="1" width="18" height="18" rx="7" fill="url(#shine)"/><circle cx="10" cy="10" r="3.4" fill="#000" opacity="0.18"/></g><g transform="translate(180 140)"><rect x="1" y="1" width="18" height="18" rx="7" fill="#FFFFFF"/><rect x="1" y="1" width="18" height="18" rx="7" fill="url(#shine)"/><circle cx="10" cy="10" r="3.4" fill="#000" opacity="0.18"/></g><g transform="translate(200 140)"><rect x="1" y="1" width="18" height="18" rx="7" fill="#FFFFFF"/><rect x="1" y="1" width="18" height="18" rx="7" fill="url(#shine)"/><circle cx="10" cy="10" r="3.4" fill="#000" opacity="0.18"/></g><g transform="translate(120 160)"><rect x="1" y="1" width="18" height="18" rx="7" fill="#FFFFFF"/><rect x="1" y="1" width="18" height="18" rx="7" fill="url(#shine)"/><circle cx="10" cy="10" r="3.4" fill="#000" opacity="0.18"/></g><g transform="translate(140 160)"><rect x="1" y="1" width="18" height="18" rx="7" fill="#FFFFFF"/><rect x="1" y="1" width="18" height="18" rx="7" fill="url(#shine)"/><circle cx="10" cy="10" r="3.4" fill="#000" opacity="0.18"/></g><g transform="translate(160 160)"><rect x="1" y="1" width="18" height="18" rx="7" fill="#FFFFFF"/><rect x="1" y="1" width="18" height="18" rx="7" fill="url(#shine)"/><circle cx="10" cy="10" r="3.4" fill="#000" opacity="0.18"/></g><g transform="translate(180 160)"><rect x="1" y="1" width="18" height="18" rx="7" fill="#FFFFFF"/><rect x="1" y="1" width="18" height="18" rx="7" fill="url(#shine)"/><circle cx="10" cy="10" r="3.4" fill="#000" opacity="0.18"/></g><g transform="translate(200 160)"><rect x="1" y="1" width="18" height="18" rx="7" fill="#FFFFFF"/><rect x="1" y="1" width="18" height="18" rx="7" fill="url(#shine)"/><circle cx="10" cy="10" r="3.4" fill="#000" opacity="0.18"/></g><g transform="translate(100 180)"><rect x="1" y="1" width="18" height="18" rx="7" fill="#E8364F"/><rect x="1" y="1" width="18" height="18" rx="7" fill="url(#shine)"/><circle cx="10" cy="10" r="3.4" fill="#000" opacity="0.18"/></g><g transform="translate(120 180)"><rect x="1" y="1" width="18" height="18" rx="7" fill="#FFFFFF"/><rect x="1" y="1" width="18" height="18" rx="7" fill="url(#shine)"/><circle cx="10" cy="10" r="3.4" fill="#000" opacity="0.18"/></g><g transform="translate(140 180)"><rect x="1" y="1" width="18" height="18" rx="7" fill="#FFFFFF"/><rect x="1" y="1" width="18" height="18" rx="7" fill="url(#shine)"/><circle cx="10" cy="10" r="3.4" fill="#000" opacity="0.18"/></g><g transform="translate(160 180)"><rect x="1" y="1" width="18" height="18" rx="7" fill="#FFFFFF"/><rect x="1" y="1" width="18" height="18" rx="7" fill="url(#shine)"/><circle cx="10" cy="10" r="3.4" fill="#000" opacity="0.18"/></g><g transform="translate(180 180)"><rect x="1" y="1" width="18" height="18" rx="7" fill="#FFFFFF"/><rect x="1" y="1" width="18" height="18" rx="7" fill="url(#shine)"/><circle cx="10" cy="10" r="3.4" fill="#000" opacity="0.18"/></g><g transform="translate(200 180)"><rect x="1" y="1" width="18" height="18" rx="7" fill="#FFFFFF"/><rect x="1" y="1" width="18" height="18" rx="7" fill="url(#shine)"/><circle cx="10" cy="10" r="3.4" fill="#000" opacity="0.18"/></g><g transform="translate(220 180)"><rect x="1" y="1" width="18" height="18" rx="7" fill="#E8364F"/><rect x="1" y="1" width="18" height="18" rx="7" fill="url(#shine)"/><circle cx="10" cy="10" r="3.4" fill="#000" opacity="0.18"/></g><g transform="translate(80 200)"><rect x="1" y="1" width="18" height="18" rx="7" fill="#E8364F"/><rect x="1" y="1" width="18" height="18" rx="7" fill="url(#shine)"/><circle cx="10" cy="10" r="3.4" fill="#000" opacity="0.18"/></g><g transform="translate(100 200)"><rect x="1" y="1" width="18" height="18" rx="7" fill="#E8364F"/><rect x="1" y="1" width="18" height="18" rx="7" fill="url(#shine)"/><circle cx="10" cy="10" r="3.4" fill="#000" opacity="0.18"/></g><g transform="translate(120 200)"><rect x="1" y="1" width="18" height="18" rx="7" fill="#FFFFFF"/><rect x="1" y="1" width="18" height="18" rx="7" fill="url(#shine)"/><circle cx="10" cy="10" r="3.4" fill="#000" opacity="0.18"/></g><g transform="translate(140 200)"><rect x="1" y="1" width="18" height="18" rx="7" fill="#FFFFFF"/><rect x="1" y="1" width="18" height="18" rx="7" fill="url(#shine)"/><circle cx="10" cy="10" r="3.4" fill="#000" opacity="0.18"/></g><g transform="translate(160 200)"><rect x="1" y="1" width="18" height="18" rx="7" fill="#FFFFFF"/><rect x="1" y="1" width="18" height="18" rx="7" fill="url(#shine)"/><circle cx="10" cy="10" r="3.4" fill="#000" opacity="0.18"/></g><g transform="translate(180 200)"><rect x="1" y="1" width="18" height="18" rx="7" fill="#FFFFFF"/><rect x="1" y="1" width="18" height="18" rx="7" fill="url(#shine)"/><circle cx="10" cy="10" r="3.4" fill="#000" opacity="0.18"/></g><g transform="translate(200 200)"><rect x="1" y="1" width="18" height="18" rx="7" fill="#FFFFFF"/><rect x="1" y="1" width="18" height="18" rx="7" fill="url(#shine)"/><circle cx="10" cy="10" r="3.4" fill="#000" opacity="0.18"/></g><g transform="translate(220 200)"><rect x="1" y="1" width="18" height="18" rx="7" fill="#E8364F"/><rect x="1" y="1" width="18" height="18" rx="7" fill="url(#shine)"/><circle cx="10" cy="10" r="3.4" fill="#000" opacity="0.18"/></g><g transform="translate(240 200)"><rect x="1" y="1" width="18" height="18" rx="7" fill="#E8364F"/><rect x="1" y="1" width="18" height="18" rx="7" fill="url(#shine)"/><circle cx="10" cy="10" r="3.4" fill="#000" opacity="0.18"/></g><g transform="translate(80 220)"><rect x="1" y="1" width="18" height="18" rx="7" fill="#E8364F"/><rect x="1" y="1" width="18" height="18" rx="7" fill="url(#shine)"/><circle cx="10" cy="10" r="3.4" fill="#000" opacity="0.18"/></g><g transform="translate(100 220)"><rect x="1" y="1" width="18" height="18" rx="7" fill="#E8364F"/><rect x="1" y="1" width="18" height="18" rx="7" fill="url(#shine)"/><circle cx="10" cy="10" r="3.4" fill="#000" opacity="0.18"/></g><g transform="translate(140 220)"><rect x="1" y="1" width="18" height="18" rx="7" fill="#FFFFFF"/><rect x="1" y="1" width="18" height="18" rx="7" fill="url(#shine)"/><circle cx="10" cy="10" r="3.4" fill="#000" opacity="0.18"/></g><g transform="translate(160 220)"><rect x="1" y="1" width="18" height="18" rx="7" fill="#FFFFFF"/><rect x="1" y="1" width="18" height="18" rx="7" fill="url(#shine)"/><circle cx="10" cy="10" r="3.4" fill="#000" opacity="0.18"/></g><g transform="translate(180 220)"><rect x="1" y="1" width="18" height="18" rx="7" fill="#FFFFFF"/><rect x="1" y="1" width="18" height="18" rx="7" fill="url(#shine)"/><circle cx="10" cy="10" r="3.4" fill="#000" opacity="0.18"/></g><g transform="translate(220 220)"><rect x="1" y="1" width="18" height="18" rx="7" fill="#E8364F"/><rect x="1" y="1" width="18" height="18" rx="7" fill="url(#shine)"/><circle cx="10" cy="10" r="3.4" fill="#000" opacity="0.18"/></g><g transform="translate(240 220)"><rect x="1" y="1" width="18" height="18" rx="7" fill="#E8364F"/><rect x="1" y="1" width="18" height="18" rx="7" fill="url(#shine)"/><circle cx="10" cy="10" r="3.4" fill="#000" opacity="0.18"/></g><g transform="translate(160 240)"><rect x="1" y="1" width="18" height="18" rx="7" fill="#FF8A3D"/><rect x="1" y="1" width="18" height="18" rx="7" fill="url(#shine)"/><circle cx="10" cy="10" r="3.4" fill="#000" opacity="0.18"/></g><g transform="translate(140 260)"><rect x="1" y="1" width="18" height="18" rx="7" fill="#FF8A3D"/><rect x="1" y="1" width="18" height="18" rx="7" fill="url(#shine)"/><circle cx="10" cy="10" r="3.4" fill="#000" opacity="0.18"/></g><g transform="translate(160 260)"><rect x="1" y="1" width="18" height="18" rx="7" fill="#FFC53D"/><rect x="1" y="1" width="18" height="18" rx="7" fill="url(#shine)"/><circle cx="10" cy="10" r="3.4" fill="#000" opacity="0.18"/></g><g transform="translate(180 260)"><rect x="1" y="1" width="18" height="18" rx="7" fill="#FF8A3D"/><rect x="1" y="1" width="18" height="18" rx="7" fill="url(#shine)"/><circle cx="10" cy="10" r="3.4" fill="#000" opacity="0.18"/></g><g transform="translate(160 280)"><rect x="1" y="1" width="18" height="18" rx="7" fill="#FF8A3D"/><rect x="1" y="1" width="18" height="18" rx="7" fill="url(#shine)"/><circle cx="10" cy="10" r="3.4" fill="#000" opacity="0.18"/></g><rect x="190" y="298" width="138" height="30" rx="15" fill="#17142E" opacity="0.72"/><text x="259" y="318" font-family="system-ui,sans-serif" font-size="14" font-weight="600" fill="#fff" text-anchor="middle">Ilustração</text></svg>